<svg xmlns="http://www.w3.org/2000/svg" viewBox="0 0 24 24" fill="black">
  <path d="M12 .5C5.65.5.5 5.65.5 12a11.5 11.5 0 0 0 7.86 10.93c.58.1.79-.25.79-.56v-2.17c-3.2.7-3.88-1.54-3.88-1.54-.52-1.34-1.28-1.7-1.28-1.7-1.05-.72.08-.7.08-.7 1.16.08 1.77 1.2 1.77 1.2 1.03 1.77 2.7 1.26 3.36.97.1-.75.4-1.26.73-1.55-2.56-.29-5.25-1.28-5.25-5.7 0-1.26.45-2.3 1.2-3.1-.12-.3-.52-1.5.12-3.13 0 0 .98-.31 3.2 1.18a11.1 11.1 0 0 1 5.82 0c2.22-1.5 3.2-1.18 3.2-1.18.64 1.63.24 2.83.12 3.13.75.8 1.2 1.84 1.2 3.1 0 4.43-2.7 5.4-5.28 5.69.42.36.79 1.06.79 2.14v3.18c0 .31.2.67.8.56A11.5 11.5 0 0 0 23.5 12C23.5 5.65 18.35.5 12 .5z"/>
</svg>